<svg width="32" height="32" viewBox="0 0 32 32" fill="none" xmlns="http://www.w3.org/2000/svg">
<rect width="32" height="32" rx="8" fill="#F2EEE8"/>
<path d="M6 15C6 14.4477 6.44772 14 7 14H11C11.5523 14 12 14.4477 12 15V23H6V15Z" fill="#06152B"/>
<path d="M13.2 12C13.2 11.4477 13.6477 11 14.2 11H18.2C18.7522 11 19.2 11.4477 19.2 12V23H13.2V12Z" fill="#06152B"/>
<path d="M20.3999 9C20.3999 8.44772 20.8476 8 21.3999 8H25.3999C25.9522 8 26.3999 8.44772 26.3999 9V23H20.3999V9Z" fill="#06152B"/>
<path d="M5 24H27" stroke="#3A36DB" stroke-width="3" stroke-linecap="round"/>
<path d="M14.1328 7.71542L15.6974 4.3628C15.7671 4.21339 15.9775 4.20778 16.0551 4.35325L17.8431 7.70588C17.9142 7.8391 17.8177 8 17.6667 8H14.314C14.1677 8 14.0709 7.84802 14.1328 7.71542Z" fill="#DA5530"/>
</svg>
