<svg width="837" height="721" viewBox="0 0 837 721" fill="none" xmlns="http://www.w3.org/2000/svg">
<ellipse cx="418.5" cy="535" rx="418" ry="186" fill="#FFD338"/>
<path d="M93.3491 198.745L415.004 13.3036C417.477 11.8779 420.523 11.8779 422.996 13.3036L744.651 198.745C750.618 202.185 749.738 211.055 743.212 213.256L421.557 321.74C419.898 322.299 418.102 322.299 416.443 321.74L94.7881 213.256C88.2621 211.055 87.3824 202.185 93.3491 198.745Z" fill="#3758F9" stroke="#05114B" stroke-width="16"/>
<rect x="141.199" y="142.718" width="555.601" height="276.543" fill="white"/>
<path d="M141.199 80.0806C141.199 71.244 148.363 64.0806 157.199 64.0806H680.8C689.637 64.0806 696.8 71.244 696.8 80.0806V108.642H141.199V80.0806Z" fill="#073E55"/>
<ellipse cx="172.104" cy="86.3615" rx="10.0703" ry="9.82971" fill="#EF4544"/>
<ellipse cx="201.621" cy="86.3615" rx="10.4175" ry="9.82971" fill="#FBBF23"/>
<ellipse cx="231.484" cy="86.3615" rx="10.4175" ry="9.82971" fill="#4ADE80"/>
<rect x="141.199" y="107.987" width="555.601" height="34.7317" fill="#FFD338"/>
<g opacity="0.24">
<rect width="10.1589" height="72.241" transform="matrix(-1 0 0 1 629.434 265.967)" fill="#635DFF"/>
</g>
<g opacity="0.64">
<rect width="10.1589" height="2.25753" transform="matrix(-1 0 0 1 629.434 261.452)" fill="#635DFF"/>
</g>
<g opacity="0.24">
<rect width="10.1589" height="69.9834" transform="matrix(-1 0 0 1 617.707 268.225)" fill="#635DFF"/>
</g>
<g opacity="0.64">
<rect width="10.1589" height="2.25753" transform="matrix(-1 0 0 1 617.707 263.709)" fill="#635DFF"/>
</g>
<g opacity="0.24">
<rect width="10.1589" height="74.4985" transform="matrix(-1 0 0 1 605.979 263.709)" fill="#635DFF"/>
</g>
<g opacity="0.64">
<rect width="10.1589" height="2.25753" transform="matrix(-1 0 0 1 605.979 259.194)" fill="#635DFF"/>
</g>
<g opacity="0.24">
<rect width="10.1589" height="81.2711" transform="matrix(-1 0 0 1 594.254 256.937)" fill="#635DFF"/>
</g>
<g opacity="0.64">
<rect width="10.1589" height="2.25753" transform="matrix(-1 0 0 1 594.254 252.422)" fill="#635DFF"/>
</g>
<g opacity="0.24">
<rect width="10.1589" height="82.3998" transform="matrix(-1 0 0 1 582.526 255.808)" fill="#635DFF"/>
</g>
<g opacity="0.64">
<rect width="10.1589" height="2.25753" transform="matrix(-1 0 0 1 582.526 251.293)" fill="#635DFF"/>
</g>
<g opacity="0.24">
<rect width="10.1589" height="72.241" transform="matrix(-1 0 0 1 570.8 265.967)" fill="#635DFF"/>
</g>
<g opacity="0.64">
<rect width="10.1589" height="2.25753" transform="matrix(-1 0 0 1 570.8 261.452)" fill="#635DFF"/>
</g>
<g opacity="0.24">
<rect width="10.1589" height="88.0437" transform="matrix(-1 0 0 1 559.072 250.164)" fill="#635DFF"/>
</g>
<g opacity="0.64">
<rect width="10.1589" height="2.25753" transform="matrix(-1 0 0 1 559.072 245.649)" fill="#635DFF"/>
</g>
<g opacity="0.24">
<rect width="10.1589" height="103.846" transform="matrix(-1 0 0 1 547.346 234.361)" fill="#635DFF"/>
</g>
<g opacity="0.64">
<rect width="10.1589" height="2.25753" transform="matrix(-1 0 0 1 547.346 229.846)" fill="#635DFF"/>
</g>
<g opacity="0.24">
<rect width="10.1589" height="94.8163" transform="matrix(-1 0 0 1 535.618 243.392)" fill="#635DFF"/>
</g>
<g opacity="0.64">
<rect width="10.1589" height="2.25753" transform="matrix(-1 0 0 1 535.618 238.876)" fill="#635DFF"/>
</g>
<g opacity="0.24">
<rect width="10.1589" height="110.619" transform="matrix(-1 0 0 1 523.891 227.589)" fill="#635DFF"/>
</g>
<g opacity="0.64">
<rect width="10.1589" height="2.25753" transform="matrix(-1 0 0 1 523.891 223.074)" fill="#635DFF"/>
</g>
<g opacity="0.24">
<rect width="10.1589" height="85.7861" transform="matrix(-1 0 0 1 512.164 252.422)" fill="#635DFF"/>
</g>
<g opacity="0.64">
<rect width="10.1589" height="2.25753" transform="matrix(-1 0 0 1 512.164 247.907)" fill="#635DFF"/>
</g>
<g opacity="0.24">
<rect width="10.1589" height="88.0437" transform="matrix(-1 0 0 1 500.438 250.164)" fill="#635DFF"/>
</g>
<g opacity="0.64">
<rect width="10.1589" height="2.25753" transform="matrix(-1 0 0 1 500.438 245.649)" fill="#635DFF"/>
</g>
<g opacity="0.24">
<rect width="10.1589" height="92.5587" transform="matrix(-1 0 0 1 488.711 245.649)" fill="#635DFF"/>
</g>
<g opacity="0.64">
<rect width="10.1589" height="2.25753" transform="matrix(-1 0 0 1 488.711 241.134)" fill="#635DFF"/>
</g>
<g opacity="0.24">
<rect width="10.1589" height="103.846" transform="matrix(-1 0 0 1 476.983 234.361)" fill="#635DFF"/>
</g>
<g opacity="0.64">
<rect width="10.1589" height="2.25753" transform="matrix(-1 0 0 1 476.983 229.846)" fill="#635DFF"/>
</g>
<g opacity="0.24">
<rect width="10.1589" height="90.3012" transform="matrix(-1 0 0 1 465.257 247.907)" fill="#635DFF"/>
</g>
<g opacity="0.64">
<rect width="10.1589" height="2.25753" transform="matrix(-1 0 0 1 465.257 243.392)" fill="#635DFF"/>
</g>
<g opacity="0.24">
<rect width="10.1589" height="106.104" transform="matrix(-1 0 0 1 453.529 232.104)" fill="#635DFF"/>
</g>
<g opacity="0.64">
<rect width="10.1589" height="2.25753" transform="matrix(-1 0 0 1 453.529 227.589)" fill="#635DFF"/>
</g>
<g opacity="0.24">
<rect width="10.1589" height="99.3313" transform="matrix(-1 0 0 1 441.803 238.876)" fill="#635DFF"/>
</g>
<g opacity="0.64">
<rect width="10.1589" height="2.25753" transform="matrix(-1 0 0 1 441.803 234.361)" fill="#635DFF"/>
</g>
<g opacity="0.24">
<rect width="10.1589" height="108.361" transform="matrix(-1 0 0 1 430.075 229.846)" fill="#635DFF"/>
</g>
<g opacity="0.64">
<rect width="10.1589" height="2.25753" transform="matrix(-1 0 0 1 430.075 225.332)" fill="#635DFF"/>
</g>
<g opacity="0.24">
<rect width="10.1589" height="112.876" transform="matrix(-1 0 0 1 418.35 225.332)" fill="#635DFF"/>
</g>
<g opacity="0.64">
<rect width="10.1589" height="2.25753" transform="matrix(-1 0 0 1 418.35 220.816)" fill="#635DFF"/>
</g>
<g opacity="0.24">
<rect width="10.1589" height="123.035" transform="matrix(-1 0 0 1 406.622 215.172)" fill="#635DFF"/>
</g>
<g opacity="0.64">
<rect width="10.1589" height="2.25753" transform="matrix(-1 0 0 1 406.622 210.657)" fill="#635DFF"/>
</g>
<g opacity="0.24">
<rect width="10.1589" height="119.649" transform="matrix(-1 0 0 1 394.896 218.559)" fill="#635DFF"/>
</g>
<g opacity="0.64">
<rect width="10.1589" height="2.25753" transform="matrix(-1 0 0 1 394.896 214.043)" fill="#635DFF"/>
</g>
<g opacity="0.24">
<rect width="10.1589" height="117.392" transform="matrix(-1 0 0 1 383.168 220.816)" fill="#635DFF"/>
</g>
<g opacity="0.64">
<rect width="10.1589" height="2.25753" transform="matrix(-1 0 0 1 383.168 216.301)" fill="#635DFF"/>
</g>
<g opacity="0.24">
<rect width="10.1589" height="121.907" transform="matrix(-1 0 0 1 371.44 216.301)" fill="#635DFF"/>
</g>
<g opacity="0.64">
<rect width="10.1589" height="2.25753" transform="matrix(-1 0 0 1 371.44 211.786)" fill="#635DFF"/>
</g>
<g opacity="0.24">
<rect width="10.1589" height="110.619" transform="matrix(-1 0 0 1 359.714 227.589)" fill="#635DFF"/>
</g>
<g opacity="0.64">
<rect width="10.1589" height="2.25753" transform="matrix(-1 0 0 1 359.714 223.074)" fill="#635DFF"/>
</g>
<g opacity="0.24">
<rect width="10.1589" height="135.452" transform="matrix(-1 0 0 1 347.986 202.756)" fill="#635DFF"/>
</g>
<g opacity="0.64">
<rect width="10.1589" height="2.25753" transform="matrix(-1 0 0 1 347.986 198.241)" fill="#635DFF"/>
</g>
<g opacity="0.24">
<rect width="10.1589" height="117.392" transform="matrix(-1 0 0 1 336.26 220.816)" fill="#635DFF"/>
</g>
<g opacity="0.64">
<rect width="10.1589" height="2.25753" transform="matrix(-1 0 0 1 336.26 216.301)" fill="#635DFF"/>
</g>
<g opacity="0.24">
<rect width="10.1589" height="127.55" transform="matrix(-1 0 0 1 324.532 210.657)" fill="#635DFF"/>
</g>
<g opacity="0.64">
<rect width="10.1589" height="2.25753" transform="matrix(-1 0 0 1 324.532 206.142)" fill="#635DFF"/>
</g>
<g opacity="0.24">
<rect width="10.1589" height="137.709" transform="matrix(-1 0 0 1 312.807 200.499)" fill="#635DFF"/>
</g>
<g opacity="0.64">
<rect width="10.1589" height="2.25753" transform="matrix(-1 0 0 1 312.807 195.983)" fill="#635DFF"/>
</g>
<g opacity="0.24">
<rect width="10.1589" height="130.937" transform="matrix(-1 0 0 1 301.079 207.271)" fill="#635DFF"/>
</g>
<g opacity="0.64">
<rect width="10.1589" height="2.25753" transform="matrix(-1 0 0 1 301.079 202.756)" fill="#635DFF"/>
</g>
<g opacity="0.24">
<rect width="10.1589" height="125.293" transform="matrix(-1 0 0 1 289.353 212.915)" fill="#635DFF"/>
</g>
<g opacity="0.64">
<rect width="10.1589" height="2.25753" transform="matrix(-1 0 0 1 289.353 208.4)" fill="#635DFF"/>
</g>
<g opacity="0.24">
<rect width="10.1589" height="145.611" transform="matrix(-1 0 0 1 277.625 192.597)" fill="#635DFF"/>
</g>
<g opacity="0.64">
<rect width="10.1589" height="2.25753" transform="matrix(-1 0 0 1 277.625 188.082)" fill="#635DFF"/>
</g>
<g opacity="0.24">
<rect width="10.1589" height="139.967" transform="matrix(-1 0 0 1 265.898 198.241)" fill="#635DFF"/>
</g>
<g opacity="0.64">
<rect width="10.1589" height="2.25753" transform="matrix(-1 0 0 1 265.898 193.726)" fill="#635DFF"/>
</g>
<g opacity="0.24">
<rect width="10.1589" height="130.937" transform="matrix(-1 0 0 1 254.171 207.271)" fill="#635DFF"/>
</g>
<g opacity="0.64">
<rect width="10.1589" height="2.25753" transform="matrix(-1 0 0 1 254.171 202.756)" fill="#635DFF"/>
</g>
<g opacity="0.24">
<rect width="10.1589" height="135.452" transform="matrix(-1 0 0 1 242.444 202.756)" fill="#635DFF"/>
</g>
<g opacity="0.64">
<rect width="10.1589" height="2.25753" transform="matrix(-1 0 0 1 242.444 198.241)" fill="#635DFF"/>
</g>
<g opacity="0.24">
<rect width="10.1589" height="145.611" transform="matrix(-1 0 0 1 230.718 192.597)" fill="#635DFF"/>
</g>
<g opacity="0.64">
<rect width="10.1589" height="2.25753" transform="matrix(-1 0 0 1 230.718 188.082)" fill="#635DFF"/>
</g>
<g opacity="0.24">
<rect width="10.1589" height="156.898" transform="matrix(-1 0 0 1 218.99 181.31)" fill="#635DFF"/>
</g>
<g opacity="0.64">
<rect width="10.1589" height="2.25753" transform="matrix(-1 0 0 1 218.99 176.794)" fill="#635DFF"/>
</g>
<path d="M78 561V218.881C78 213.276 83.6145 209.408 88.8513 211.406L416.149 336.259C417.985 336.959 420.015 336.959 421.851 336.259L749.149 211.406C754.385 209.408 760 213.276 760 218.881V561C760 565.418 756.418 569 752 569H86C81.5817 569 78 565.418 78 561Z" fill="#F0F6FF" stroke="#05114B" stroke-width="16"/>
</svg>
