<svg width="48" height="48" viewBox="0 0 48 48" fill="none" xmlns="http://www.w3.org/2000/svg">
<rect width="48" height="48" rx="24" fill="white"/>
<path d="M24 0C10.766 0 0 10.7664 0 23.9995C0 37.2336 10.767 48 24 48C37.2349 48 48 37.2327 48 23.9995C48 10.7654 37.2349 0 24 0ZM24 46.6255C11.5227 46.6255 1.37171 36.476 1.37171 23.9985C1.37171 11.522 11.5227 1.37162 24 1.37162C36.4763 1.37162 46.6264 11.522 46.6264 23.9985C46.6264 36.477 36.4773 46.6255 24 46.6255Z" fill="#06152B"/>
<path d="M24.3162 9.52472C20.0585 9.52472 16.4983 12.3494 15.4564 16.5545C15.4108 16.7379 15.4409 16.927 15.5379 17.089C15.6349 17.251 15.7882 17.3645 15.9715 17.4101L20.9335 18.6508C21.2798 18.7381 21.6494 18.5373 21.7688 18.2055C22.1704 17.0939 23.0891 15.9725 24.2435 15.9725C26.0624 15.9725 26.7104 17.1152 26.7104 18.1842C26.7104 19.2997 26.7104 20.6878 21.9453 20.6878C21.5553 20.6878 21.2391 21.005 21.2391 21.394V28.7653C21.2391 29.1533 21.5553 29.4714 21.9453 29.4714H26.9781C27.3681 29.4714 27.6853 29.1542 27.6853 28.7653V26.1074C31.0108 25.3459 33.5971 22.1138 33.5971 18.6954C33.5971 13.1245 29.9534 9.52472 24.3162 9.52472ZM26.886 24.8172C26.5387 24.8638 26.2739 25.1635 26.2739 25.5186V28.0581H22.6525V22.0895C26.5368 21.9751 28.1228 20.8372 28.1228 18.1842C28.1228 16.0162 26.5639 14.5601 24.2444 14.5601C22.1733 14.5601 21.0519 16.411 20.6939 17.1356L17.026 16.2179C18.1115 13.0052 20.9558 10.9381 24.3172 10.9381C29.1696 10.9381 32.1827 13.9102 32.1827 18.6954C32.1836 21.6811 29.8079 24.4292 26.886 24.8172Z" fill="#06152B"/>
<path d="M24.2804 30.7199C22.1491 30.7199 20.5436 32.3253 20.5436 34.4555C20.5436 36.5828 22.1481 38.1891 24.2804 38.1891C26.4078 38.1891 28.0152 36.5837 28.0152 34.4555C28.0152 32.3253 26.4087 30.7199 24.2804 30.7199ZM24.2804 36.7758C22.9329 36.7758 21.957 35.8 21.957 34.4545C21.957 33.1081 22.9329 32.1313 24.2804 32.1313C25.6259 32.1313 26.6018 33.1081 26.6018 34.4545C26.6018 35.8 25.6259 36.7758 24.2804 36.7758Z" fill="#06152B"/>
</svg>
